<?xml version="1.0" encoding="utf-8"?><svg viewBox="0 0 520 33" xmlns="http://www.w3.org/2000/svg" xmlns:xlink="http://www.w3.org/1999/xlink"><style>:root>svg{display:none}:root>svg:target{display:block}</style><svg viewBox="0 0 520 33" id="header-separator" xmlns="http://www.w3.org/2000/svg"><path d="M440.01 1 430 11H265.86l-5.85 5.86-5.86-5.86H90.01l-10-10M520 1H290l-29.99 30-30-30H0"/></svg><svg viewBox="0 0 30 30" id="slider-left-arrow" xmlns="http://www.w3.org/2000/svg"><g clip-path="url(#ba)"><path d="m17.143 15 6.428-6.429L30 15l-6.428 6.428L17.142 15Z"/><path d="m0 15 15 15 4.286-4.286L8.57 15 19.286 4.286 15 0 0 15Z"/></g><defs><clipPath id="ba"><path d="M0 0h30v30H0z"/></clipPath></defs></svg><svg viewBox="0 0 30 30" id="slider-right-arrow" xmlns="http://www.w3.org/2000/svg"><g clip-path="url(#ca)"><path d="M12.857 15 6.43 8.571 0 15l6.429 6.428L12.857 15Z"/><path d="M30 15 15 30l-4.286-4.286L21.43 15 10.714 4.286 15 0l15 15Z"/></g><defs><clipPath id="ca"><path transform="matrix(-1 0 0 1 30 0)" d="M0 0h30v30H0z"/></clipPath></defs></svg></svg>